<svg xmlns="http://www.w3.org/2000/svg" viewBox="0 0 240 240"><title>Linkoi pixel koi avatar</title><rect width="240" height="240" rx="40" fill="#1e264a"/><g transform="scale(10)" shape-rendering="crispEdges"><g fill="#eb4034"><rect x="13" y="2" width="4" height="1"/><rect x="12" y="3" width="6" height="1"/><rect x="11" y="4" width="8" height="1"/><rect x="11" y="5" width="8" height="1"/><rect x="11" y="6" width="8" height="1"/><rect x="10" y="7" width="9" height="1"/><rect x="10" y="8" width="8" height="1"/><rect x="7" y="9" width="2" height="1"/><rect x="10" y="9" width="8" height="1"/><rect x="19" y="9" width="2" height="1"/><rect x="6" y="10" width="12" height="1"/><rect x="19" y="10" width="3" height="1"/><rect x="7" y="11" width="10" height="1"/><rect x="18" y="11" width="4" height="1"/><rect x="8" y="12" width="8" height="1"/><rect x="18" y="12" width="3" height="1"/><rect x="8" y="13" width="7" height="1"/><rect x="7" y="14" width="7" height="1"/><rect x="7" y="15" width="6" height="1"/><rect x="7" y="16" width="5" height="1"/><rect x="8" y="17" width="4" height="1"/><rect x="8" y="18" width="3" height="1"/><rect x="5" y="19" width="2" height="1"/><rect x="8" y="19" width="3" height="1"/><rect x="12" y="19" width="2" height="1"/><rect x="4" y="20" width="4" height="1"/><rect x="9" y="20" width="4" height="1"/><rect x="3" y="21" width="4" height="1"/><rect x="10" y="21" width="4" height="1"/><rect x="3" y="22" width="2" height="1"/><rect x="12" y="22" width="3" height="1"/></g><g fill="#1e264a"><rect x="12" y="4" width="1" height="1"/><rect x="17" y="4" width="1" height="1"/></g></g></svg>
